<svg xmlns="http://www.w3.org/2000/svg" width="128.203" height="125" viewBox="0 0 128.203 125">
  <defs>
    <style>
      .cls-1 {
        fill: #ff5757;
      }
    </style>
  </defs>
  <path id="github" class="cls-1" d="M42.881,108.65c0,.517-.594.931-1.344.931-.853.078-1.447-.336-1.447-.931,0-.517.594-.931,1.344-.931C42.209,107.642,42.881,108.055,42.881,108.65Zm-8.039-1.163c-.181.517.336,1.111,1.111,1.267a1.212,1.212,0,0,0,1.6-.517c.155-.517-.336-1.111-1.111-1.344a1.327,1.327,0,0,0-1.6.594Zm11.425-.439c-.75.181-1.267.672-1.189,1.267.078.517.75.853,1.525.672.75-.181,1.267-.672,1.189-1.189C47.714,107.306,47.016,106.97,46.267,107.047ZM63.274,8C27.424,8,0,35.217,0,71.068c0,28.665,18.041,53.194,43.811,61.827,3.308.594,4.472-1.447,4.472-3.128,0-1.6-.078-10.442-.078-15.87,0,0-18.093,3.877-21.893-7.7,0,0-2.947-7.522-7.186-9.46,0,0-5.919-4.058.414-3.98a13.644,13.644,0,0,1,9.977,6.669c5.661,9.977,15.147,7.108,18.843,5.4A14.366,14.366,0,0,1,52.5,96.114c-14.449-1.6-29.027-3.7-29.027-28.561,0-7.108,1.964-10.675,6.1-15.224-.672-1.68-2.869-8.607.672-17.55,5.4-1.68,17.835,6.979,17.835,6.979a61.062,61.062,0,0,1,32.464,0s12.433-8.685,17.835-6.979c3.541,8.969,1.344,15.87.672,17.55,4.136,4.575,6.669,8.142,6.669,15.224,0,24.943-15.224,26.933-29.673,28.561,2.378,2.042,4.394,5.919,4.394,11.993,0,8.711-.078,19.489-.078,21.608,0,1.68,1.189,3.722,4.472,3.128,25.847-8.581,43.372-33.111,43.372-61.775C128.2,35.217,99.125,8,63.274,8ZM25.124,97.148c-.336.258-.258.853.181,1.344.414.414,1.008.594,1.344.258.336-.258.258-.853-.181-1.344C26.054,96.993,25.46,96.812,25.124,97.148Zm-2.792-2.094c-.181.336.078.75.594,1.008a.769.769,0,0,0,1.111-.181c.181-.336-.078-.75-.594-1.008C22.927,94.718,22.513,94.8,22.332,95.054Zm8.375,9.2c-.414.336-.258,1.111.336,1.6.594.594,1.344.672,1.68.258.336-.336.181-1.111-.336-1.6C31.818,103.92,31.043,103.842,30.707,104.256Zm-2.947-3.8c-.414.258-.414.931,0,1.525s1.111.853,1.447.594a1.179,1.179,0,0,0,0-1.6c-.362-.594-1.034-.853-1.447-.517Z" transform="translate(0 -8)"/>
</svg>
