<svg xmlns="http://www.w3.org/2000/svg" width="125.028" height="125" viewBox="0 0 125.028 125">
  <defs>
    <style>
      .cls-1 {
        fill: #ff5757;
      }
    </style>
  </defs>
  <path id="instagram" class="cls-1" d="M62.453,62.277A32.048,32.048,0,1,0,94.5,94.325,32,32,0,0,0,62.453,62.277Zm0,52.884A20.836,20.836,0,1,1,83.289,94.325a20.874,20.874,0,0,1-20.836,20.836Zm40.835-54.2a7.475,7.475,0,1,1-7.475-7.475A7.458,7.458,0,0,1,103.287,60.966Zm21.226,7.587c-.474-10.013-2.761-18.883-10.1-26.191-7.308-7.308-16.178-9.6-26.191-10.1-10.32-.586-41.253-.586-51.573,0-9.985.474-18.855,2.761-26.191,10.069S.866,58.511.364,68.524c-.586,10.32-.586,41.253,0,51.573.474,10.013,2.761,18.883,10.1,26.191s16.178,9.6,26.191,10.1c10.32.586,41.253.586,51.573,0,10.013-.474,18.883-2.761,26.191-10.1,7.308-7.308,9.6-16.178,10.1-26.191.586-10.32.586-41.225,0-51.545Zm-13.333,62.619A21.094,21.094,0,0,1,99.3,143.053c-8.228,3.263-27.753,2.51-36.846,2.51s-28.646.725-36.846-2.51a21.094,21.094,0,0,1-11.882-11.882c-3.263-8.228-2.51-27.753-2.51-36.846s-.725-28.646,2.51-36.846A21.094,21.094,0,0,1,25.607,45.6c8.228-3.263,27.753-2.51,36.846-2.51S91.1,42.361,99.3,45.6a21.094,21.094,0,0,1,11.882,11.882c3.263,8.228,2.51,27.753,2.51,36.846S114.444,122.971,111.181,131.171Z" transform="translate(0.075 -31.825)"/>
</svg>
