<svg xmlns="http://www.w3.org/2000/svg" width="153.906" height="125" viewBox="0 0 153.906 125">
  <defs>
    <style>
      .cls-1 {
        fill: #ff5757;
      }
    </style>
  </defs>
  <path id="twitter" class="cls-1" d="M138.086,79.234c.1,1.367.1,2.735.1,4.1,0,41.7-31.738,89.746-89.746,89.746A89.138,89.138,0,0,1,0,158.922a65.253,65.253,0,0,0,7.617.39,63.171,63.171,0,0,0,39.16-13.476,31.6,31.6,0,0,1-29.492-21.875,39.78,39.78,0,0,0,5.957.488,33.361,33.361,0,0,0,8.3-1.074A31.547,31.547,0,0,1,6.25,92.418v-.39a31.767,31.767,0,0,0,14.258,4,31.59,31.59,0,0,1-9.766-42.187A89.66,89.66,0,0,0,75.781,86.851,35.608,35.608,0,0,1,75,79.625a31.573,31.573,0,0,1,54.59-21.582,62.1,62.1,0,0,0,20.02-7.617,31.458,31.458,0,0,1-13.867,17.383,63.234,63.234,0,0,0,18.164-4.883A67.8,67.8,0,0,1,138.086,79.234Z" transform="translate(0 -48.082)"/>
</svg>
