<svg xmlns="http://www.w3.org/2000/svg" width="177.778" height="125" viewBox="0 0 177.778 125">
  <defs>
    <style>
      .cls-1 {
        fill: #ff5757;
      }
    </style>
  </defs>
  <path id="youtube" class="cls-1" d="M189,83.558a22.338,22.338,0,0,0-15.717-15.819C159.415,64,103.822,64,103.822,64S48.23,64,34.365,67.739A22.338,22.338,0,0,0,18.648,83.558c-3.715,13.954-3.715,43.068-3.715,43.068s0,29.114,3.715,43.068a22.005,22.005,0,0,0,15.717,15.567C48.23,189,103.822,189,103.822,189s55.592,0,69.457-3.739A22.005,22.005,0,0,0,189,169.694c3.715-13.954,3.715-43.068,3.715-43.068S192.711,97.512,189,83.558ZM85.64,153.06V100.193L132.1,126.627,85.64,153.06Z" transform="translate(-14.933 -64)"/>
</svg>
